HIERARCHY
ROOT Hips
{
	OFFSET 0.053599 88.859886 3.107447
	CHANNELS 6 Xposition Yposition Zposition Zrotation Yrotation Xrotation 
	JOINT Spine
	{
		OFFSET -0.000000 8.814246 -2.080107
		CHANNELS 3 Zrotation Yrotation Xrotation
		JOINT Spine1
		{
			OFFSET 0.000000 8.844141 0.000000
			CHANNELS 3 Zrotation Yrotation Xrotation
			JOINT Spine2
			{
				OFFSET -0.000000 11.682268 0.000000
				CHANNELS 3 Zrotation Yrotation Xrotation
				JOINT Spine3
				{
					OFFSET 0.000000 11.746700 0.000000
					CHANNELS 3 Zrotation Yrotation Xrotation
					JOINT Neck
					{
						OFFSET -0.000000 17.658264 -0.000000
						CHANNELS 3 Zrotation Yrotation Xrotation
						JOINT Neck1
						{
							OFFSET -0.000000 5.101515 -0.000000
							CHANNELS 3 Zrotation Yrotation Xrotation
							JOINT Head
							{
								OFFSET 0.000000 5.101515 0.000000
								CHANNELS 3 Zrotation Yrotation Xrotation
								JOINT HeadEnd
								{
									OFFSET 0.000000 11.655085 0.000000
									CHANNELS 3 Zrotation Yrotation Xrotation
									End Site
									{
										OFFSET 0.000000 0.000000 0.000000
									}
								}
							}
						}
					}
					JOINT RightShoulder
					{
						OFFSET -2.625389 11.175210 0.000000
						CHANNELS 3 Zrotation Yrotation Xrotation
						JOINT RightArm
						{
							OFFSET -0.000000 10.434715 -0.000000
							CHANNELS 3 Zrotation Yrotation Xrotation
							JOINT RightForeArm
							{
								OFFSET -0.000000 29.628420 0.000000
								CHANNELS 3 Zrotation Yrotation Xrotation
								JOINT RightHand
								{
									OFFSET -0.000000 22.857611 0.000000
									CHANNELS 3 Zrotation Yrotation Xrotation
									JOINT RightHandThumb1
									{
										OFFSET -2.867323 3.959563 2.944291
										CHANNELS 3 Zrotation Yrotation Xrotation
										JOINT RightHandThumb2
										{
											OFFSET 0.000000 3.350399 0.000000
											CHANNELS 3 Zrotation Yrotation Xrotation
											JOINT RightHandThumb3
											{
												OFFSET 0.000000 3.756509 -0.000000
												CHANNELS 3 Zrotation Yrotation Xrotation
												JOINT RightHandThumb4
												{
													OFFSET 0.000000 3.147345 0.000000
													CHANNELS 3 Zrotation Yrotation Xrotation
													End Site
													{
														OFFSET 0.000000 0.000000 0.000000
													}
												}
											}
										}
									}
									JOINT RightHandIndex1
									{
										OFFSET -0.086752 10.030893 2.345280
										CHANNELS 3 Zrotation Yrotation Xrotation
										JOINT RightHandIndex2
										{
											OFFSET -0.000000 4.061090 0.000000
											CHANNELS 3 Zrotation Yrotation Xrotation
											JOINT RightHandIndex3
											{
												OFFSET -0.000000 3.248873 0.000000
												CHANNELS 3 Zrotation Yrotation Xrotation
												JOINT RightHandIndex4
												{
													OFFSET 0.000000 2.639709 -0.000000
													CHANNELS 3 Zrotation Yrotation Xrotation
													End Site
													{
														OFFSET 0.000000 0.000000 0.000000
													}
												}
											}
										}
									}
									JOINT RightHandMiddle1
									{
										OFFSET 0.104102 9.502952 0.006768
										CHANNELS 3 Zrotation Yrotation Xrotation
										JOINT RightHandMiddle2
										{
											OFFSET 0.000000 4.568727 0.000000
											CHANNELS 3 Zrotation Yrotation Xrotation
											JOINT RightHandMiddle3
											{
												OFFSET 0.000000 3.654981 -0.000000
												CHANNELS 3 Zrotation Yrotation Xrotation
												JOINT RightHandMiddle4
												{
													OFFSET -0.000000 2.741236 -0.000000
													CHANNELS 3 Zrotation Yrotation Xrotation
													End Site
													{
														OFFSET 0.000000 0.000000 0.000000
													}
												}
											}
										}
									}
									JOINT RightHandRing1
									{
										OFFSET 0.086752 8.921708 -2.267442
										CHANNELS 3 Zrotation Yrotation Xrotation
										JOINT RightHandRing2
										{
											OFFSET -0.000000 4.061090 0.000000
											CHANNELS 3 Zrotation Yrotation Xrotation
											JOINT RightHandRing3
											{
												OFFSET 0.000000 3.654981 -0.000000
												CHANNELS 3 Zrotation Yrotation Xrotation
												JOINT RightHandRing4
												{
													OFFSET 0.000000 2.741236 -0.000000
													CHANNELS 3 Zrotation Yrotation Xrotation
													End Site
													{
														OFFSET 0.000000 0.000000 0.000000
													}
												}
											}
										}
									}
									JOINT RightHandPinky1
									{
										OFFSET -0.173504 7.976997 -4.467199
										CHANNELS 3 Zrotation Yrotation Xrotation
										JOINT RightHandPinky2
										{
											OFFSET 0.000000 3.350399 -0.000000
											CHANNELS 3 Zrotation Yrotation Xrotation
											JOINT RightHandPinky3
											{
												OFFSET -0.000000 2.842763 0.000000
												CHANNELS 3 Zrotation Yrotation Xrotation
												JOINT RightHandPinky4
												{
													OFFSET -0.000000 2.639709 0.000000
													CHANNELS 3 Zrotation Yrotation Xrotation
													End Site
													{
														OFFSET 0.000000 0.000000 0.000000
													}
												}
											}
										}
									}
									JOINT RightForeArmEnd
									{
										OFFSET 0.000000 0.000000 0.000000
										CHANNELS 3 Zrotation Yrotation Xrotation
										End Site
										{
											OFFSET 0.000000 0.000000 0.000000
										}
									}
								}
								JOINT RightArmEnd
								{
									OFFSET 0.000000 0.000000 0.000000
									CHANNELS 3 Zrotation Yrotation Xrotation
									End Site
									{
										OFFSET 0.000000 0.000000 0.000000
									}
								}
							}
						}
					}
					JOINT LeftShoulder
					{
						OFFSET 2.625389 11.175210 0.000000
						CHANNELS 3 Zrotation Yrotation Xrotation
						JOINT LeftArm
						{
							OFFSET 0.000000 10.813635 -0.000000
							CHANNELS 3 Zrotation Yrotation Xrotation
							JOINT LeftForeArm
							{
								OFFSET 0.000000 28.724781 0.000000
								CHANNELS 3 Zrotation Yrotation Xrotation
								JOINT LeftHand
								{
									OFFSET 0.644384 25.716167 -0.328871
									CHANNELS 3 Zrotation Yrotation Xrotation
									JOINT LeftHandThumb1
									{
										OFFSET 2.867323 3.959563 2.944291
										CHANNELS 3 Zrotation Yrotation Xrotation
										JOINT LeftHandThumb2
										{
											OFFSET 0.000000 3.350399 0.000000
											CHANNELS 3 Zrotation Yrotation Xrotation
											JOINT LeftHandThumb3
											{
												OFFSET -0.000000 3.756509 0.000000
												CHANNELS 3 Zrotation Yrotation Xrotation
												JOINT LeftHandThumb4
												{
													OFFSET -0.000000 3.100000 0.000000
													CHANNELS 3 Zrotation Yrotation Xrotation
													End Site
													{
														OFFSET 0.000000 0.000000 0.000000
													}
												}
											}
										}
									}
									JOINT LeftHandIndex1
									{
										OFFSET 0.086752 10.030893 2.345280
										CHANNELS 3 Zrotation Yrotation Xrotation
										JOINT LeftHandIndex2
										{
											OFFSET -0.000000 4.061090 -0.000000
											CHANNELS 3 Zrotation Yrotation Xrotation
											JOINT LeftHandIndex3
											{
												OFFSET 0.000000 3.248873 -0.000000
												CHANNELS 3 Zrotation Yrotation Xrotation
												JOINT LeftHandIndex4
												{
													OFFSET 0.000000 2.639709 -0.000000
													CHANNELS 3 Zrotation Yrotation Xrotation
													End Site
													{
														OFFSET 0.000000 0.000000 0.000000
													}
												}
											}
										}
									}
									JOINT LeftHandMiddle1
									{
										OFFSET -0.104102 9.502952 0.006768
										CHANNELS 3 Zrotation Yrotation Xrotation
										JOINT LeftHandMiddle2
										{
											OFFSET -0.000000 4.568727 -0.000000
											CHANNELS 3 Zrotation Yrotation Xrotation
											JOINT LeftHandMiddle3
											{
												OFFSET 0.000000 3.654981 0.000000
												CHANNELS 3 Zrotation Yrotation Xrotation
												JOINT LeftHandMiddle4
												{
													OFFSET 0.000000 2.741236 -0.000000
													CHANNELS 3 Zrotation Yrotation Xrotation
													End Site
													{
														OFFSET 0.000000 0.000000 0.000000
													}
												}
											}
										}
									}
									JOINT LeftHandRing1
									{
										OFFSET -0.086752 8.921708 -2.267442
										CHANNELS 3 Zrotation Yrotation Xrotation
										JOINT LeftHandRing2
										{
											OFFSET 0.000000 4.061090 0.000000
											CHANNELS 3 Zrotation Yrotation Xrotation
											JOINT LeftHandRing3
											{
												OFFSET 0.000000 3.654981 0.000000
												CHANNELS 3 Zrotation Yrotation Xrotation
												JOINT LeftHandRing4
												{
													OFFSET 0.000000 2.741236 0.000000
													CHANNELS 3 Zrotation Yrotation Xrotation
													End Site
													{
														OFFSET 0.000000 0.000000 0.000000
													}
												}
											}
										}
									}
									JOINT LeftHandPinky1
									{
										OFFSET 0.173504 7.976997 -4.467199
										CHANNELS 3 Zrotation Yrotation Xrotation
										JOINT LeftHandPinky2
										{
											OFFSET -0.000000 3.350399 -0.000000
											CHANNELS 3 Zrotation Yrotation Xrotation
											JOINT LeftHandPinky3
											{
												OFFSET 0.000000 2.842763 0.000000
												CHANNELS 3 Zrotation Yrotation Xrotation
												JOINT LeftHandPinky4
												{
													OFFSET -0.000000 2.639709 -0.000000
													CHANNELS 3 Zrotation Yrotation Xrotation
													End Site
													{
														OFFSET 0.000000 0.000000 0.000000
													}
												}
											}
										}
									}
									JOINT LeftForeArmEnd
									{
										OFFSET 0.000000 0.000000 0.000000
										CHANNELS 3 Zrotation Yrotation Xrotation
										End Site
										{
											OFFSET 0.000000 0.000000 0.000000
										}
									}
								}
								JOINT LeftArmEnd
								{
									OFFSET 0.000000 0.000000 0.000000
									CHANNELS 3 Zrotation Yrotation Xrotation
									End Site
									{
										OFFSET 0.000000 0.000000 0.000000
									}
								}
							}
						}
					}
				}
			}
		}
	}
	JOINT RightUpLeg
	{
		OFFSET -11.289943 0.000000 0.000000
		CHANNELS 3 Zrotation Yrotation Xrotation
		JOINT RightLeg
		{
			OFFSET 0.000000 -38.200325 0.000000
			CHANNELS 3 Zrotation Yrotation Xrotation
			JOINT RightFoot
			{
				OFFSET -0.000000 -39.900856 -0.000000
				CHANNELS 3 Zrotation Yrotation Xrotation
				JOINT RightToeBase
				{
					OFFSET 0.000000 0.000000 15.261641
					CHANNELS 3 Zrotation Yrotation Xrotation
					JOINT RightToeBaseEnd
					{
						OFFSET 0.000000 0.000000 7.370709
						CHANNELS 3 Zrotation Yrotation Xrotation
						End Site
						{
							OFFSET 0.000000 0.000000 0.000000
						}
					}
				}
				JOINT RightLegEnd
				{
					OFFSET 0.000000 0.000000 0.000000
					CHANNELS 3 Zrotation Yrotation Xrotation
					End Site
					{
						OFFSET 0.000000 0.000000 0.000000
					}
				}
			}
			JOINT RightUpLegEnd
			{
				OFFSET 0.000000 0.000000 0.000000
				CHANNELS 3 Zrotation Yrotation Xrotation
				End Site
				{
					OFFSET 0.000000 0.000000 0.000000
				}
			}
		}
	}
	JOINT LeftUpLeg
	{
		OFFSET 11.315661 -0.000000 0.000000
		CHANNELS 3 Zrotation Yrotation Xrotation
		JOINT LeftLeg
		{
			OFFSET -0.000000 -38.200325 -0.000000
			CHANNELS 3 Zrotation Yrotation Xrotation
			JOINT LeftFoot
			{
				OFFSET 0.000000 -39.900856 -0.000000
				CHANNELS 3 Zrotation Yrotation Xrotation
				JOINT LeftToeBase
				{
					OFFSET -0.000000 -0.000000 15.261641
					CHANNELS 3 Zrotation Yrotation Xrotation
					JOINT LeftToeBaseEnd
					{
						OFFSET 0.000000 -0.000000 7.539996
						CHANNELS 3 Zrotation Yrotation Xrotation
						End Site
						{
							OFFSET 0.000000 0.000000 0.000000
						}
					}
				}
				JOINT LeftLegEnd
				{
					OFFSET 0.000000 0.000000 0.000000
					CHANNELS 3 Zrotation Yrotation Xrotation
					End Site
					{
						OFFSET 0.000000 0.000000 0.000000
					}
				}
			}
			JOINT LeftUpLegEnd
			{
				OFFSET 0.000000 0.000000 0.000000
				CHANNELS 3 Zrotation Yrotation Xrotation
				End Site
				{
					OFFSET 0.000000 0.000000 0.000000
				}
			}
		}
	}
}
MOTION
Frames: 4
Frame Time: 0.016667
0.167161 88.707085 3.335081 0.046656 -0.839817 -11.052399 0.905595 -0.079051 7.205858 -0.861166 0.269810 3.257314 -0.039880 -0.819294 4.720144 -1.232318 0.141546 5.070302 1.736869 0.297865 5.302568 0.562087 1.164666 -3.058170 -0.214389 -0.885310 -19.792925 0.000000 0.000000 0.000000 91.878990 -0.231719 9.703351 69.560623 -20.153984 2.894115 0.370129 18.754576 32.492428 -10.780860 7.429150 -7.667122 16.093929 31.429886 65.892822 -4.131844 -4.959539 -9.140442 -2.925081 -3.276334 -6.212917 0.000000 0.000000 0.000000 -17.313404 -5.868723 11.015566 0.351065 0.533287 0.459492 0.039679 0.095371 0.511353 0.000000 0.000000 0.000000 -15.875482 -0.591941 6.579785 -0.550846 0.535171 0.136543 -0.020199 0.029940 0.138910 0.000000 0.000000 0.000000 -12.620314 6.785209 1.599665 -0.016676 -1.028941 -0.300683 -0.137699 -0.041512 -0.181302 0.000000 0.000000 0.000000 -10.124416 14.679676 -4.254795 0.772885 -2.031544 -0.747259 0.548789 -0.065274 -0.590860 0.000000 0.000000 0.000000 0.000000 0.000000 0.000000 0.000000 0.000000 0.000000 -89.727989 0.133546 5.098313 -71.480682 12.174217 -6.609634 -0.438912 -12.838290 59.661938 16.708578 -6.185932 -12.920000 -15.173990 -31.757660 66.861443 3.069542 2.962048 -6.023083 2.053882 2.086047 -4.212152 0.000000 0.000000 0.000000 19.129766 -12.249800 16.158272 0.092982 0.535255 -0.434895 0.055887 0.078017 -0.458453 0.000000 0.000000 0.000000 17.900673 -6.774035 10.279551 -0.009280 0.519142 -0.193231 -0.201167 0.034896 -0.160023 0.000000 0.000000 0.000000 13.352223 2.024027 3.208097 -1.647124 -1.036975 0.384218 -1.729396 -0.036182 0.293114 0.000000 0.000000 0.000000 7.138119 12.102926 -4.615502 -3.837290 -1.975312 1.311745 -3.490805 0.042392 1.196304 0.000000 0.000000 0.000000 0.000000 0.000000 0.000000 0.000000 0.000000 0.000000 -0.727269 -9.004075 15.000416 -0.083046 -0.719270 5.400393 -2.979564 -7.209917 16.869396 -0.810443 0.833206 -18.450224 0.000000 0.000000 0.000000 0.000000 0.000000 0.000000 0.000000 0.000000 0.000000 -1.389294 -5.724544 10.037970 0.065109 0.321034 10.389058 3.493489 -0.768190 16.223278 0.268077 -0.465524 -20.558928 0.000000 0.000000 0.000000 0.000000 0.000000 0.000000 0.000000 0.000000 0.000000 
0.161859 88.701775 3.365802 0.016523 -0.884193 -11.078358 0.925546 -0.084514 7.231064 -0.866866 0.264576 3.229735 -0.040190 -0.830919 4.740815 -1.222386 0.130422 5.043795 1.692736 0.295806 5.222863 0.564542 1.151166 -3.087709 -0.221639 -0.899187 -19.779320 0.000000 0.000000 0.000000 91.905739 -0.242003 9.718998 69.412033 -20.229479 2.970014 0.369091 18.749613 32.403904 -10.275175 7.763614 -7.713571 16.229725 31.373800 65.743118 -4.320163 -5.219387 -9.581813 -3.063136 -3.451151 -6.526863 0.000000 0.000000 0.000000 -16.139570 -6.075450 10.842014 0.340282 0.537316 0.462592 0.024294 0.098601 0.515383 0.000000 0.000000 0.000000 -14.736452 -0.783722 6.473023 -0.569250 0.536625 0.138715 -0.032180 0.031019 0.140917 0.000000 0.000000 0.000000 -11.489648 6.598661 1.633586 -0.014821 -1.031611 -0.299986 -0.136452 -0.043048 -0.181717 0.000000 0.000000 0.000000 -9.054447 14.507473 -4.117498 0.814573 -2.039850 -0.739366 0.574531 -0.071852 -0.583295 0.000000 0.000000 0.000000 0.000000 0.000000 0.000000 0.000000 0.000000 0.000000 -89.728004 0.142201 5.113261 -71.416389 11.944880 -6.571366 -0.455477 -12.991682 59.581486 15.612652 -7.421078 -13.155126 -15.434118 -31.650787 66.563385 3.439453 3.472375 -6.889739 2.326833 2.430004 -4.821138 0.000000 0.000000 0.000000 16.872946 -11.897242 15.554994 0.179612 0.533438 -0.454118 0.138020 0.076283 -0.477931 0.000000 0.000000 0.000000 15.658674 -6.408263 9.832132 0.065593 0.517966 -0.201041 -0.127214 0.034019 -0.167303 0.000000 0.000000 0.000000 10.983967 2.422886 2.997073 -1.658486 -1.036326 0.399072 -1.729985 -0.035277 0.303868 0.000000 0.000000 0.000000 4.873670 12.452232 -4.607687 -3.951526 -1.973006 1.367400 -3.595586 0.045549 1.247450 0.000000 0.000000 0.000000 0.000000 0.000000 0.000000 0.000000 0.000000 0.000000 -0.702625 -8.999275 15.051057 -0.082984 -0.718097 5.417596 -2.971000 -7.198297 16.847847 -0.806128 0.836235 -18.438246 0.000000 0.000000 0.000000 0.000000 0.000000 0.000000 0.000000 0.000000 0.000000 -1.377022 -5.757865 10.053557 0.064280 0.321064 10.449274 3.495148 -0.745033 16.144840 0.272356 -0.464880 -20.544878 0.000000 0.000000 0.000000 0.000000 0.000000 0.000000 0.000000 0.000000 0.000000 
0.156325 88.696648 3.395865 -0.014802 -0.921485 -11.100142 0.945656 -0.089039 7.257565 -0.870078 0.258497 3.196551 -0.047896 -0.835607 4.761661 -1.209575 0.120315 5.015084 1.662860 0.290570 5.142652 0.569719 1.135574 -3.117711 -0.226290 -0.911235 -19.766682 0.000000 0.000000 0.000000 91.938583 -0.256086 9.735233 69.229385 -20.339344 3.059419 0.364846 18.768709 32.298450 -9.657213 8.121534 -7.749157 16.393560 31.307499 65.564476 -4.541702 -5.530915 -10.109362 -3.226053 -3.660216 -6.900462 0.000000 0.000000 0.000000 -14.787470 -6.316759 10.616377 0.361592 0.539551 0.475044 0.040049 0.099929 0.527645 0.000000 0.000000 0.000000 -13.435583 -1.005583 6.331241 -0.554519 0.537148 0.144830 -0.009382 0.031305 0.146393 0.000000 0.000000 0.000000 -10.214637 6.387404 1.659104 0.030122 -1.033110 -0.303723 -0.091570 -0.043678 -0.185755 0.000000 0.000000 0.000000 -7.862841 14.314339 -3.967823 0.902458 -2.045662 -0.743295 0.644641 -0.075855 -0.585448 0.000000 0.000000 0.000000 0.000000 0.000000 0.000000 0.000000 0.000000 0.000000 -89.727448 0.146161 5.126070 -71.333771 11.677853 -6.510691 -0.477160 -13.221904 59.449390 14.201400 -9.010655 -13.436274 -15.775540 -31.513416 66.177063 3.912460 4.139776 -8.013066 2.678842 2.879347 -5.612791 0.000000 0.000000 0.000000 14.016995 -11.434433 14.737667 0.213396 0.529637 -0.479714 0.166508 0.072326 -0.503525 0.000000 0.000000 0.000000 12.821830 -5.934033 9.229001 0.080329 0.515815 -0.212226 -0.112715 0.032222 -0.177409 0.000000 0.000000 0.000000 7.996933 2.926210 2.709633 -1.765468 -1.034188 0.420070 -1.826203 -0.033063 0.319448 0.000000 0.000000 0.000000 2.016423 12.880877 -4.609677 -4.188190 -1.966161 1.446527 -3.820311 0.052927 1.318972 0.000000 0.000000 0.000000 0.000000 0.000000 0.000000 0.000000 0.000000 0.000000 -0.677376 -9.000597 15.104858 -0.082804 -0.716706 5.429585 -2.963165 -7.191001 16.825096 -0.802039 0.839663 -18.427254 0.000000 0.000000 0.000000 0.000000 0.000000 0.000000 0.000000 0.000000 0.000000 -1.367223 -5.796563 10.061315 0.063246 0.321260 10.510645 3.499198 -0.729782 16.068365 0.276279 -0.463097 -20.532114 0.000000 0.000000 0.000000 0.000000 0.000000 0.000000 0.000000 0.000000 0.000000 
0.150545 88.692078 3.425652 -0.047063 -0.948122 -11.114283 0.964142 -0.092155 7.282269 -0.870585 0.251164 3.159091 -0.062057 -0.834805 4.781568 -1.192591 0.110321 4.989587 1.644155 0.286925 5.063776 0.577094 1.122226 -3.146901 -0.228828 -0.921218 -19.752779 0.000000 0.000000 0.000000 91.970177 -0.274167 9.749486 69.016991 -20.491343 3.157826 0.356711 18.820757 32.180862 -8.899418 8.517094 -7.793573 16.591034 31.228790 65.349800 -4.803638 -5.906586 -10.742709 -3.419359 -3.911189 -7.346945 0.000000 0.000000 0.000000 -13.214397 -6.598799 10.302332 0.435244 0.538751 0.498896 0.107282 0.098380 0.550089 0.000000 0.000000 0.000000 -11.928366 -1.265236 6.125487 -0.483198 0.536340 0.155493 0.070395 0.030475 0.155836 0.000000 0.000000 0.000000 -8.748548 6.142757 1.655622 0.148948 -1.032707 -0.312639 0.028044 -0.042939 -0.193773 0.000000 0.000000 0.000000 -6.505553 14.094251 -3.818765 1.069558 -2.047215 -0.760204 0.793365 -0.076002 -0.598071 0.000000 0.000000 0.000000 0.000000 0.000000 0.000000 0.000000 0.000000 0.000000 -89.719109 0.144937 5.138918 -71.246490 11.396870 -6.440541 -0.505849 -13.526211 59.255623 12.478934 -10.920636 -13.732574 -16.202950 -31.348049 65.705048 4.479064 4.970579 -9.392629 3.105973 3.437960 -6.586072 0.000000 0.000000 0.000000 10.580378 -10.864017 13.677952 0.024094 0.523361 -0.510627 -0.027066 0.065463 -0.534259 0.000000 0.000000 0.000000 9.420038 -5.354604 8.453783 -0.138511 0.512546 -0.226661 -0.330260 0.029240 -0.190058 0.000000 0.000000 0.000000 4.434743 3.530260 2.345272 -2.150021 -1.030140 0.446818 -2.200206 -0.029087 0.339633 0.000000 0.000000 0.000000 -1.393953 13.385630 -4.603955 -4.710741 -1.953114 1.543839 -4.331266 0.066026 1.406453 0.000000 0.000000 0.000000 0.000000 0.000000 0.000000 0.000000 0.000000 0.000000 -0.650748 -9.009704 15.157049 -0.082617 -0.715336 5.436239 -2.956377 -7.188118 16.801756 -0.798600 0.843507 -18.418556 0.000000 0.000000 0.000000 0.000000 0.000000 0.000000 0.000000 0.000000 0.000000 -1.358753 -5.836597 10.058663 0.062114 0.321873 10.568925 3.506102 -0.725528 15.996927 0.280082 -0.459909 -20.520586 0.000000 0.000000 0.000000 0.000000 0.000000 0.000000 0.000000 0.000000 0.000000 
